<?xml version="1.0" encoding="UTF-8"?><svg id="Layer_1" xmlns="http://www.w3.org/2000/svg" viewBox="0 0 80 80"><defs><style>.cls-1{fill:none;}.cls-2{fill:#ffe600;}</style></defs><path class="cls-2" d="M29.42,53.4c-5.88,5.88-11.67,11.76-17.52,17.64h56.04v3.96H5.06V12.12h3.96v56c5.86-5.92,11.8-11.78,17.64-17.72L71.77,5.04l2.88,2.88L29.42,53.4Z"/><path d="M13.08,38.28c2.69,0,4.13,1.87,4.13,4.95v3.15h4.28v2.55H9.08v-5.8c0-2.96,1.29-4.84,3.99-4.84Zm1.94,5.1c0-1.63-.49-2.53-1.84-2.53-1.41,0-1.9,.92-1.9,2.45v3.08h3.74v-2.99Z"/><path d="M17.16,35.27c1.61-.7,2.38-2.09,2.38-3.94,0-1.99-.85-2.75-1.7-2.75s-1.26,.66-1.43,1.89c-.1,.76-.19,1.8-.29,2.62-.25,2.04-1.16,3.69-3.37,3.69-2.33,0-3.88-2.09-3.88-5.12,0-2.06,.63-3.94,2.53-5.2l1.44,1.85c-1.38,.92-1.84,2.06-1.84,3.37,0,1.56,.73,2.5,1.58,2.5,.78,0,1.12-.54,1.26-1.75,.08-.71,.17-1.56,.27-2.43,.22-1.84,.97-4.01,3.52-4.01s4.05,2.19,4.05,5.41c0,2.82-1.09,4.93-3.54,6.03l-1-2.14Z"/><path d="M15.22,12.17c3.94,0,6.27,2.65,6.27,6.7v5.01H9.08v-5.01c0-4,2.07-6.7,6.14-6.7Zm4.08,6.88c0-2.21-1.12-4.25-4.01-4.25-3.11,0-4.01,2.04-4.01,4.25v2.28h8.02v-2.28Z"/><path d="M51.1,64.65c1.69,.25,2.69,1.15,2.69,2.9,0,2.57-2.16,3.74-5.39,3.74s-5.16-1.34-5.5-4.15l2.52-.32c.27,1.75,1.24,2.33,3,2.33,1.87,0,2.72-.59,2.72-1.87,0-1.11-.87-1.48-2.28-1.48h-1.95v-2.07h1.67c1.27,0,2.18-.26,2.18-1.33s-.83-1.79-2.31-1.79c-1.89,0-2.75,.89-2.91,2.58l-2.45-.29c.25-2.76,2.13-4.43,5.51-4.43,3.09,0,4.78,1.51,4.78,3.55,0,1.14-.55,2.25-2.26,2.57v.05Z"/><path d="M67.54,64.81c0,3.94-2.65,6.27-6.7,6.27h-5.01v-12.41h5.01c4,0,6.7,2.07,6.7,6.14Zm-6.88,4.08c2.21,0,4.25-1.12,4.25-4.01,0-3.11-2.04-4.01-4.25-4.01h-2.28v8.02h2.28Z"/><rect class="cls-1" y="75" width="5" height="5"/><rect class="cls-1" x="75.11" y="74.76" width="5" height="5"/></svg>