<svg width="80" height="80" viewBox="0 0 80 80" fill="none" xmlns="http://www.w3.org/2000/svg">
<path d="M7.5 5H55L65 15L72.5 22.5V75H7.5V5Z" fill="#C5C5C5"/>
<path fill-rule="evenodd" clip-rule="evenodd" d="M71.6129 73.8709V22.774L54.9681 6.12909H8.38727V73.8709H71.6129ZM54.639 5.80008L54.6374 5.79841L55.4357 5.00006L54.6374 5.79841C54.6379 5.79897 54.6385 5.79952 54.639 5.80008ZM73.871 77.258H6.12921C5.50567 77.258 5.00018 76.7525 5.00018 76.1289V3.87103C5.00018 3.24749 5.50567 2.742 6.12921 2.742H55.4357C56.0346 2.742 56.6089 2.97991 57.0324 3.40337L74.3387 20.7096C74.7621 21.1331 75 21.7074 75 22.3063V76.1289C75 76.7525 74.4946 77.258 73.871 77.258Z" fill="#949494"/>
<path d="M54.6775 23.1936V3.87108L75 24.1936H55.6775C55.1252 24.1936 54.6775 23.7459 54.6775 23.1936Z" fill="#949494"/>
<path d="M32.2933 34.6473L39.2103 45.0575H14.0325V51.878H39.2103L32.2933 62.2434L37.6885 65.9677L49.0324 48.5575L37.6885 30.9678L32.2933 34.6473Z" fill="black"/>
<path d="M68.9935 40.935V30.7467L55.8064 30.7467L55.8064 34.0705H60.6296L60.6296 39.5983H63.3935L63.3935 34.0705H66.2115V40.935H68.9935Z" fill="black"/>
<path d="M62.6528 51.401C62.8335 53.1533 63.9354 54.1829 65.6154 54.1829C67.747 54.1829 68.9754 52.6113 68.9754 49.9739L68.9754 42.3326L55.7883 42.3326L55.7883 49.8113C55.7883 52.8462 57.1612 54.5803 59.329 54.5803C61.2438 54.5803 62.418 53.352 62.5986 51.401H62.6528ZM66.3018 48.9262C66.3018 50.2449 65.778 50.6965 64.947 50.6965C64.0438 50.6965 63.6102 50.1184 63.6102 48.8358V45.6565H66.3018V48.9262ZM58.4799 45.6565H61.2257L61.2257 49.0526C61.2257 50.6062 60.6838 51.0939 59.8528 51.0939C58.9315 51.0939 58.4799 50.57 58.4799 49.0346L58.4799 45.6565Z" fill="black"/>
<path d="M62.6167 63.6441L68.9754 68.3589L68.9754 64.7099L64.6941 61.7473L68.9754 58.7666V54.9189L62.4541 59.5976L55.8064 54.666L55.8064 58.3331L60.2864 61.4944L55.8064 64.6557L55.8064 68.5215L62.6167 63.6441Z" fill="black"/>
<path d="M18.5257 8.74842H11.9503V21.9355H15.2741V17.8349H18.4535C21.8315 17.8349 23.8728 16.2091 23.8728 13.2284C23.8728 10.2839 21.8315 8.76649 18.5257 8.76649V8.74842ZM15.2741 15.0891V11.5304H18.2006C19.5915 11.5304 20.5309 11.982 20.5309 13.3187C20.5309 14.6374 19.6096 15.0891 18.1464 15.0891H15.2741Z" fill="black"/>
<path d="M24.3996 18.431C25.6461 20.9961 27.9222 22.1523 30.9932 22.1523C34.5699 22.1523 37.0086 20.4723 37.0086 17.7084C37.0086 14.9445 34.5699 14.1316 32.4564 13.9149C31.6616 13.8245 30.7222 13.7523 30.0177 13.68C28.9158 13.5716 28.4461 13.2465 28.4461 12.5781C28.4461 11.8194 29.259 11.1871 30.7945 11.1871C32.1132 11.1871 33.3416 11.6568 34.317 12.9574L36.539 11.1329C35.1299 9.23616 33.1067 8.54971 30.8125 8.54971C27.4706 8.54971 25.1222 10.1575 25.1222 12.7587C25.1222 15.2516 27.0732 16.2091 29.3854 16.4439C30.1983 16.5342 31.1919 16.5884 31.8964 16.6787C33.0525 16.8232 33.6667 17.2026 33.6667 17.9432C33.6667 18.6839 33.0164 19.4968 31.0654 19.4968C29.1867 19.4968 27.7416 18.7561 27.019 17.1665L24.3996 18.431Z" fill="black"/>
<path d="M44.5348 8.74842H38.8444V21.9355H44.5348C48.9064 21.9355 51.7244 19.4607 51.7244 15.2697C51.7244 10.9523 48.8341 8.74842 44.5348 8.74842ZM42.1683 19.1716V11.5304H44.2819C46.5941 11.5304 48.3283 12.4878 48.3283 15.36C48.3283 18.0697 46.5941 19.1716 44.2819 19.1716H42.1683Z" fill="black"/>
</svg>
