<?xml version="1.0" encoding="utf-8"?>
<!-- Generator: Adobe Illustrator 26.5.0, SVG Export Plug-In . SVG Version: 6.00 Build 0)  -->
<svg version="1.1" id="Layer_1" xmlns="http://www.w3.org/2000/svg" xmlns:xlink="http://www.w3.org/1999/xlink" x="0px" y="0px"
	 viewBox="0 0 80 80" style="enable-background:new 0 0 80 80;" xml:space="preserve">
<style type="text/css">
	.st0{fill:#C5C5C5;}
	.st1{fill-rule:evenodd;clip-rule:evenodd;fill:#949494;}
	.st2{fill:#949494;}
	.st3{stroke:#000000;stroke-width:0.5;stroke-miterlimit:10;}
</style>
<path class="st0" d="M7.5,5H55l10,10l7.5,7.5V75h-65V5z"/>
<path class="st1" d="M71.6,73.9V22.8L55,6.1H8.4v67.7H71.6z M54.6,5.8L54.6,5.8L55.4,5L54.6,5.8C54.6,5.8,54.6,5.8,54.6,5.8z
	 M73.9,77.3H6.1c-0.6,0-1.1-0.5-1.1-1.1V3.9c0-0.6,0.5-1.1,1.1-1.1h49.3C56,2.7,56.6,3,57,3.4l17.3,17.3c0.4,0.4,0.7,1,0.7,1.6v53.8
	C75,76.8,74.5,77.3,73.9,77.3z"/>
<path class="st2" d="M54.7,23.2V3.9L75,24.2H55.7C55.1,24.2,54.7,23.7,54.7,23.2z"/>
<path d="M32.3,34.6l6.9,10.4H14v6.8h25.2l-6.9,10.4l5.4,3.7L49,48.6L37.7,31L32.3,34.6z"/>
<path d="M18.5,8.7H12v13.2h3.3v-4.1h3.2c3.4,0,5.4-1.6,5.4-4.6C23.9,10.3,21.8,8.8,18.5,8.7L18.5,8.7z M15.3,15.1v-3.6h2.9
	c1.4,0,2.3,0.5,2.3,1.8c0,1.3-0.9,1.8-2.4,1.8H15.3z"/>
<path d="M24.4,18.4c1.2,2.6,3.5,3.7,6.6,3.7c3.6,0,6-1.7,6-4.4s-2.4-3.6-4.6-3.8c-0.8-0.1-1.7-0.2-2.4-0.2c-1.1-0.1-1.6-0.4-1.6-1.1
	c0-0.8,0.8-1.4,2.3-1.4c1.3,0,2.5,0.5,3.5,1.8l2.2-1.8c-1.4-1.9-3.4-2.6-5.7-2.6c-3.3,0-5.7,1.6-5.7,4.2c0,2.5,2,3.5,4.3,3.7
	c0.8,0.1,1.8,0.1,2.5,0.2c1.2,0.1,1.8,0.5,1.8,1.3c0,0.7-0.7,1.6-2.6,1.6c-1.9,0-3.3-0.7-4-2.3L24.4,18.4z"/>
<path d="M44.5,8.7h-5.7v13.2h5.7c4.4,0,7.2-2.5,7.2-6.7C51.7,11,48.8,8.7,44.5,8.7z M42.2,19.2v-7.6h2.1c2.3,0,4,1,4,3.8
	c0,2.7-1.7,3.8-4,3.8H42.2z"/>
<g>
	<path class="st3" d="M62.7,45.4c-0.3,1.8-1.2,2.9-3.1,2.9c-2.7,0-4-2.4-4-5.9c0-3.6,1.4-5.6,4.4-6l0.3,2.8
		c-1.8,0.3-2.5,1.4-2.5,3.3c0,2,0.6,3,2,3c1.2,0,1.6-0.9,1.6-2.5v-2.1h2.2v1.8c0,1.4,0.3,2.4,1.4,2.4c1.2,0,1.9-0.9,1.9-2.5
		c0-2.1-0.9-3-2.7-3.2l0.3-2.7c2.9,0.3,4.7,2.3,4.7,6c0,3.4-1.6,5.2-3.8,5.2C64.3,47.9,63.1,47.2,62.7,45.4L62.7,45.4z"/>
	<path class="st3" d="M62.5,63.3c-4.2,0-6.6-2.9-6.6-7.3v-5.5H69V56C69,60.4,66.8,63.3,62.5,63.3z M58.2,55.8c0,2.4,1.2,4.6,4.2,4.6
		c3.3,0,4.2-2.2,4.2-4.6v-2.5h-8.5V55.8z"/>
</g>
</svg>
